<svg width="1184" height="532" viewBox="0 0 1184 532" fill="none" xmlns="http://www.w3.org/2000/svg">
<rect x="719" y="153" width="11" height="9" fill="#53212B"/>
<rect x="849" y="178" width="9" height="5" fill="#53212B"/>
<rect x="868" y="268" width="9" height="5" fill="#53212B"/>
<rect x="975" y="59" width="8" height="8" fill="#53212B"/>
<rect x="1004" y="59" width="8" height="8" fill="#53212B"/>
<rect x="684" y="494" width="5" height="3" fill="#53212B"/>
<rect x="693" y="494" width="5" height="3" fill="#53212B"/>
<rect x="59" y="138" width="6" height="5" fill="#53212B"/>
<rect y="229" width="6" height="5" fill="#53212B"/>
<rect x="12" y="229" width="6" height="5" fill="#53212B"/>
<rect x="90" y="408" width="9" height="9" fill="#53212B"/>
<rect x="176" y="526" width="3" height="6" fill="#53212B"/>
<rect x="183" y="526" width="3" height="6" fill="#53212B"/>
<rect x="276" y="255" width="11" height="11" fill="#53212B"/>
<rect x="373" width="7" height="7" fill="#53212B"/>
<rect x="1052" y="487" width="13" height="10" fill="#53212B"/>
<rect x="1095" y="506" width="13" height="10" fill="#53212B"/>
<rect x="1174" y="281" width="10" height="7" fill="#53212B"/>
<rect x="1145" y="146" width="8" height="7" fill="#53212B"/>
</svg>
